<?xml version="1.0" encoding="UTF-8" standalone="no"?>
<svg
   xmlns:dc="http://purl.org/dc/elements/1.1/"
   xmlns:cc="http://creativecommons.org/ns#"
   xmlns:rdf="http://www.w3.org/1999/02/22-rdf-syntax-ns#"
   xmlns:svg="http://www.w3.org/2000/svg"
   xmlns="http://www.w3.org/2000/svg"
   version="1.1"
   id="svg4478"
   viewBox="0 0 423.17789 141.40353"
   height="141.40353"
   width="423.17789">
  <defs
     id="defs4480" />
  <metadata
     id="metadata4483">
    <rdf:RDF>
      <cc:Work
         rdf:about="">
        <dc:format>image/svg+xml</dc:format>
        <dc:type
           rdf:resource="http://purl.org/dc/dcmitype/StillImage" />
        <dc:title></dc:title>
      </cc:Work>
    </rdf:RDF>
  </metadata>
  <g
     transform="translate(-167.1418,-813.35817)"
     id="layer1">
    <g
       id="g4453"
       style="clip-rule:evenodd;fill-rule:evenodd;image-rendering:optimizeQuality;shape-rendering:geometricPrecision;text-rendering:geometricPrecision"
       transform="matrix(4.106996,0,0,4.106996,1813.4123,2022.2885)">
      <path
         class="fil0"
         d="m -396.55439,-262.05523 c 1.0128,0 1.76351,-0.13326 2.25213,-0.39978 0.48862,-0.26652 0.73296,-0.69297 0.73296,-1.27932 0,-0.60413 -0.23988,-1.08386 -0.71964,-1.43922 -0.47973,-0.35536 -1.27043,-0.75517 -2.37204,-1.19937 -0.53307,-0.21321 -1.0439,-0.43088 -1.53252,-0.65298 -0.48865,-0.2221 -0.91064,-0.48419 -1.266,-0.78624 -0.35536,-0.30208 -0.63966,-0.66633 -0.85287,-1.09275 -0.21321,-0.42645 -0.31983,-0.9506 -0.31983,-1.57251 0,-1.22601 0.45309,-2.19882 1.35927,-2.91843 0.90618,-0.71961 2.14108,-1.07943 3.7047,-1.07943 0.39089,0 0.78178,0.0222 1.1727,0.0666 0.39089,0.0444 0.75514,0.0977 1.09275,0.15993 0.33758,0.0622 0.6352,0.12883 0.89286,0.19989 0.25763,0.0711 0.45752,0.13326 0.59967,0.18657 l -0.45309,2.13219 c -0.26652,-0.14215 -0.68408,-0.28873 -1.25268,-0.43977 -0.56857,-0.15104 -1.25265,-0.22653 -2.05221,-0.22653 -0.69297,0 -1.2971,0.13769 -1.81239,0.4131 -0.51526,0.27541 -0.77292,0.70629 -0.77292,1.29264 0,0.30205 0.0578,0.5686 0.17325,0.79959 0.11551,0.23096 0.29319,0.43974 0.53304,0.62631 0.23988,0.18657 0.5375,0.35982 0.89286,0.51972 0.35536,0.15993 0.78181,0.32872 1.27932,0.5064 0.65744,0.24877 1.24379,0.49308 1.75905,0.73296 0.51529,0.23985 0.95506,0.51972 1.31931,0.83955 0.36425,0.31983 0.64409,0.70629 0.83955,1.15938 0.19546,0.45309 0.29316,1.00834 0.29316,1.66578 0,1.27929 -0.4753,2.24767 -1.4259,2.90511 -0.9506,0.65741 -2.30541,0.98613 -4.06449,0.98613 -1.22601,0 -2.1855,-0.10216 -2.87847,-0.30651 -0.69294,-0.20432 -1.16381,-0.35979 -1.41255,-0.46641 l 0.45309,-2.13219 c 0.28427,0.10662 0.73736,0.26652 1.35927,0.47973 0.62188,0.21324 1.44811,0.31983 2.47866,0.31983 z"
         id="path10-2"
         style="clip-rule:evenodd;fill:#009ca3;fill-opacity:1;fill-rule:evenodd;image-rendering:optimizeQuality;shape-rendering:geometricPrecision;text-rendering:geometricPrecision" />
      <path
         class="fil0"
         d="m -388.66521,-267.17253 c 0,-1.22601 0.17768,-2.29655 0.53304,-3.21162 0.35539,-0.91507 0.82623,-1.67467 1.41258,-2.27877 0.58635,-0.60413 1.26157,-1.05722 2.0256,-1.3593 0.76403,-0.30205 1.54584,-0.45309 2.3454,-0.45309 1.86567,0 3.29603,0.58192 4.29105,1.74573 0.99502,1.16384 1.49253,2.93621 1.49253,5.31717 0,0.10662 0,0.24431 0,0.4131 0,0.16882 -0.009,0.32429 -0.0266,0.46644 l -9.48828,0 c 0.10662,1.43922 0.52418,2.53197 1.25268,3.27825 0.7285,0.74625 1.86567,1.11939 3.41151,1.11939 0.87065,0 1.60358,-0.0755 2.19882,-0.22653 0.59524,-0.15104 1.04387,-0.29762 1.34595,-0.43977 l 0.34647,2.07888 c -0.30205,0.1599 -0.83066,0.32872 -1.5858,0.5064 -0.75517,0.17768 -1.6125,0.26652 -2.57196,0.26652 -1.20826,0 -2.25213,-0.18214 -3.13167,-0.54639 -0.87954,-0.36425 -1.60358,-0.86619 -2.17218,-1.50585 -0.56857,-0.63966 -0.99059,-1.39926 -1.26597,-2.27877 -0.27541,-0.87954 -0.41313,-1.84346 -0.41313,-2.89179 z m 9.51492,-1.35927 c 0.0178,-1.11942 -0.26209,-2.03892 -0.83955,-2.75853 -0.57746,-0.71961 -1.37259,-1.07943 -2.38539,-1.07943 -0.5686,0 -1.07054,0.11105 -1.50588,0.33315 -0.43531,0.2221 -0.80399,0.51086 -1.10607,0.86622 -0.30205,0.35536 -0.53747,0.76403 -0.70629,1.22601 -0.16879,0.46198 -0.27984,0.93282 -0.33315,1.41258 l 6.87633,0 z"
         id="path12-1"
         style="clip-rule:evenodd;fill:#009ca3;fill-opacity:1;fill-rule:evenodd;image-rendering:optimizeQuality;shape-rendering:geometricPrecision;text-rendering:geometricPrecision" />
      <path
         class="fil0"
         d="m -372.99361,-273.72903 c 0.5686,-0.14215 1.31931,-0.29319 2.25213,-0.45309 0.93285,-0.15993 2.01225,-0.23988 3.23826,-0.23988 0.88843,0 1.63468,0.11994 2.23881,0.35982 0.60413,0.23985 1.11053,0.59078 1.5192,1.05276 0.12437,-0.0888 0.31983,-0.21321 0.58635,-0.37314 0.26652,-0.1599 0.59524,-0.31537 0.98613,-0.46641 0.39092,-0.15104 0.82623,-0.2843 1.30596,-0.39978 0.47976,-0.11551 0.99505,-0.17325 1.54584,-0.17325 1.06611,0 1.93676,0.15547 2.61195,0.46641 0.67519,0.31097 1.2038,0.75071 1.58583,1.31931 0.382,0.56857 0.63966,1.24379 0.77292,2.02557 0.13326,0.78181 0.19989,1.63468 0.19989,2.55864 l 0,7.78251 -2.47869,0 0,-7.24947 c 0,-0.81734 -0.04,-1.51917 -0.11994,-2.10552 -0.08,-0.58635 -0.23096,-1.075 -0.45309,-1.46589 -0.2221,-0.39089 -0.52415,-0.67965 -0.90618,-0.86622 -0.382,-0.18654 -0.87508,-0.27984 -1.47921,-0.27984 -0.83509,0 -1.52363,0.11105 -2.06556,0.33315 -0.54193,0.2221 -0.91061,0.42202 -1.10607,0.5997 0.14215,0.46195 0.24877,0.96835 0.31983,1.51917 0.0711,0.55082 0.10662,1.12828 0.10662,1.73241 l 0,7.78251 -2.47869,0 0,-7.24947 c 0,-0.81734 -0.0444,-1.51917 -0.13326,-2.10552 -0.0888,-0.58635 -0.24431,-1.075 -0.46641,-1.46589 -0.2221,-0.39089 -0.52418,-0.67965 -0.90618,-0.86622 -0.38203,-0.18654 -0.86622,-0.27984 -1.45257,-0.27984 -0.24874,0 -0.51526,0.009 -0.79956,0.0267 -0.28431,0.0178 -0.55526,0.04 -0.81292,0.0666 -0.25762,0.0266 -0.49305,0.0577 -0.70629,0.0933 -0.2132,0.0355 -0.35535,0.0622 -0.42641,0.0799 l 0,11.7004 -2.47869,0 0,-13.4595 z"
         id="path14-7-05"
         style="clip-rule:evenodd;fill:#009ca3;fill-opacity:1;fill-rule:evenodd;image-rendering:optimizeQuality;shape-rendering:geometricPrecision;text-rendering:geometricPrecision" />
      <path
         class="fil0"
         d="m -350.81881,-267.17253 c 0,-1.22601 0.17768,-2.29655 0.53304,-3.21162 0.35539,-0.91507 0.82623,-1.67467 1.41258,-2.27877 0.58635,-0.60413 1.26157,-1.05722 2.0256,-1.3593 0.76403,-0.30205 1.54584,-0.45309 2.3454,-0.45309 1.86567,0 3.29603,0.58192 4.29105,1.74573 0.99502,1.16384 1.49253,2.93621 1.49253,5.31717 0,0.10662 0,0.24431 0,0.4131 0,0.16882 -0.009,0.32429 -0.0266,0.46644 l -9.48828,0 c 0.10662,1.43922 0.52418,2.53197 1.25268,3.27825 0.7285,0.74625 1.86567,1.11939 3.41151,1.11939 0.87065,0 1.60358,-0.0755 2.19882,-0.22653 0.59524,-0.15104 1.04387,-0.29762 1.34595,-0.43977 l 0.34647,2.07888 c -0.30205,0.1599 -0.83066,0.32872 -1.5858,0.5064 -0.75517,0.17768 -1.6125,0.26652 -2.57196,0.26652 -1.20826,0 -2.25213,-0.18214 -3.13167,-0.54639 -0.87954,-0.36425 -1.60358,-0.86619 -2.17218,-1.50585 -0.56857,-0.63966 -0.99059,-1.39926 -1.26597,-2.27877 -0.27541,-0.87954 -0.41313,-1.84346 -0.41313,-2.89179 z m 9.51492,-1.35927 c 0.0178,-1.11942 -0.26209,-2.03892 -0.83955,-2.75853 -0.57746,-0.71961 -1.37259,-1.07943 -2.38539,-1.07943 -0.5686,0 -1.07054,0.11105 -1.50588,0.33315 -0.43531,0.2221 -0.80399,0.51086 -1.10607,0.86622 -0.30205,0.35536 -0.53747,0.76403 -0.70629,1.22601 -0.16879,0.46198 -0.27984,0.93282 -0.33315,1.41258 l 6.87633,0 z"
         id="path16-5-85"
         style="clip-rule:evenodd;fill:#009ca3;fill-opacity:1;fill-rule:evenodd;image-rendering:optimizeQuality;shape-rendering:geometricPrecision;text-rendering:geometricPrecision" />
      <path
         class="fil0"
         d="m -335.14721,-273.72903 c 0.5686,-0.14215 1.32374,-0.29319 2.26545,-0.45309 0.94174,-0.15993 2.0256,-0.23988 3.25161,-0.23988 1.10164,0 2.01668,0.15547 2.74518,0.46641 0.7285,0.31097 1.31042,0.74628 1.74576,1.30599 0.43531,0.55968 0.74182,1.23044 0.9195,2.01225 0.17768,0.78181 0.26652,1.64357 0.26652,2.58528 l 0,7.78251 -2.47869,0 0,-7.24947 c 0,-0.85287 -0.0577,-1.58137 -0.17322,-2.1855 -0.11551,-0.6041 -0.30651,-1.09275 -0.57303,-1.46586 -0.26652,-0.37314 -0.62188,-0.64412 -1.06611,-0.81291 -0.4442,-0.16879 -0.99502,-0.2532 -1.65243,-0.2532 -0.26652,0 -0.54193,0.009 -0.82623,0.0267 -0.2843,0.0178 -0.55525,0.04 -0.81291,0.0666 -0.25763,0.0266 -0.48862,0.0577 -0.69297,0.0933 -0.20432,0.0355 -0.3509,0.0622 -0.43974,0.0799 l 0,11.7004 -2.47869,0 0,-13.4595 z"
         id="path18-3-507"
         style="clip-rule:evenodd;fill:#009ca3;fill-opacity:1;fill-rule:evenodd;image-rendering:optimizeQuality;shape-rendering:geometricPrecision;text-rendering:geometricPrecision" />
      <path
         class="fil0"
         d="m -309.90731,-267.17253 c 0,-1.22601 0.17768,-2.29655 0.53304,-3.21162 0.35539,-0.91507 0.82623,-1.67467 1.41258,-2.27877 0.58635,-0.60413 1.26157,-1.05722 2.0256,-1.3593 0.76403,-0.30205 1.54584,-0.45309 2.3454,-0.45309 1.86567,0 3.29603,0.58192 4.29105,1.74573 0.99502,1.16384 1.49253,2.93621 1.49253,5.31717 0,0.10662 0,0.24431 0,0.4131 0,0.16882 -0.009,0.32429 -0.0266,0.46644 l -9.48828,0 c 0.10662,1.43922 0.52418,2.53197 1.25268,3.27825 0.7285,0.74625 1.86567,1.11939 3.41151,1.11939 0.87065,0 1.60358,-0.0755 2.19882,-0.22653 0.59524,-0.15104 1.04387,-0.29762 1.34595,-0.43977 l 0.34647,2.07888 c -0.30205,0.1599 -0.83066,0.32872 -1.5858,0.5064 -0.75517,0.17768 -1.6125,0.26652 -2.57196,0.26652 -1.20826,0 -2.25213,-0.18214 -3.13167,-0.54639 -0.87954,-0.36425 -1.60358,-0.86619 -2.17218,-1.50585 -0.56857,-0.63966 -0.99059,-1.39926 -1.26597,-2.27877 -0.27541,-0.87954 -0.41313,-1.84346 -0.41313,-2.89179 z m 9.51492,-1.35927 c 0.0178,-1.11942 -0.26209,-2.03892 -0.83955,-2.75853 -0.57746,-0.71961 -1.37259,-1.07943 -2.38539,-1.07943 -0.5686,0 -1.07054,0.11105 -1.50588,0.33315 -0.43531,0.2221 -0.80399,0.51086 -1.10607,0.86622 -0.30205,0.35536 -0.53747,0.76403 -0.70629,1.22601 -0.16879,0.46198 -0.27984,0.93282 -0.33315,1.41258 l 6.87633,0 z"
         id="path20-5-3"
         style="clip-rule:evenodd;fill:#009ca3;fill-opacity:1;fill-rule:evenodd;image-rendering:optimizeQuality;shape-rendering:geometricPrecision;text-rendering:geometricPrecision" />
      <path
         class="fil1"
         d="m -335.12961,-276.87563 c 3.3513,-14.9606 13.6321,-4.86638 13.7483,-4.76285 0.006,-0.36041 -2.46904,-8.938 4.17072,-12.7203 -3.58428,4.44933 -3.51617,9.22541 -2.29863,12.2249 2.35816,-5.3273 14.5237,-8.92796 18.8955,2.92415 -7.9165,-5.45969 -14.9024,-4.36239 -17.0958,-1.20097 -1.85008,2.66655 2.97547,5.73958 0.28898,13.1979 -1.35327,3.757 0.0222,6.50692 5.1944,4.43788 0.15991,0.68408 0.31981,1.36816 0.47973,2.05224 -0.24877,0.12437 -0.68408,0.27984 -1.30596,0.46641 -2.72151,0.81645 -6.05557,0.20127 -6.72975,-2.93175 -0.65256,-3.03248 0.68871,-3.70355 1.2621,-6.95844 2.37138,-13.4611 -12.8272,-14.0393 -16.6096,-6.72916 z"
         id="path22-6-8"
         style="clip-rule:evenodd;fill:#9eab05;fill-opacity:1;fill-rule:evenodd;image-rendering:optimizeQuality;shape-rendering:geometricPrecision;text-rendering:geometricPrecision" />
    </g>
  </g>
</svg>
