<?xml version="1.0" encoding="UTF-8" standalone="no"?>
<svg
   xmlns:dc="http://purl.org/dc/elements/1.1/"
   xmlns:cc="http://creativecommons.org/ns#"
   xmlns:rdf="http://www.w3.org/1999/02/22-rdf-syntax-ns#"
   xmlns:svg="http://www.w3.org/2000/svg"
   xmlns="http://www.w3.org/2000/svg"
   version="1.1"
   id="svg4485"
   viewBox="0 0 437.35112 162.66337"
   height="45.907219mm"
   width="123.43021mm">
  <defs
     id="defs4487" />
  <metadata
     id="metadata4490">
    <rdf:RDF>
      <cc:Work
         rdf:about="">
        <dc:format>image/svg+xml</dc:format>
        <dc:type
           rdf:resource="http://purl.org/dc/dcmitype/StillImage" />
        <dc:title></dc:title>
      </cc:Work>
    </rdf:RDF>
  </metadata>
  <g
     transform="translate(-135.61019,-131.71665)"
     id="layer1">
    <g
       id="g4475"
       style="clip-rule:evenodd;fill-rule:evenodd;image-rendering:optimizeQuality;shape-rendering:geometricPrecision;text-rendering:geometricPrecision"
       transform="matrix(4.106996,0,0,4.106996,1788.9673,1347.7336)">
      <path
         class="fil0"
         d="m -396.55439,-262.05523 c 1.0128,0 1.76351,-0.13326 2.25213,-0.39978 0.48862,-0.26652 0.73296,-0.69297 0.73296,-1.27932 0,-0.60413 -0.23988,-1.08386 -0.71964,-1.43922 -0.47973,-0.35536 -1.27043,-0.75517 -2.37204,-1.19937 -0.53307,-0.21321 -1.0439,-0.43088 -1.53252,-0.65298 -0.48865,-0.2221 -0.91064,-0.48419 -1.266,-0.78624 -0.35536,-0.30208 -0.63966,-0.66633 -0.85287,-1.09275 -0.21321,-0.42645 -0.31983,-0.9506 -0.31983,-1.57251 0,-1.22601 0.45309,-2.19882 1.35927,-2.91843 0.90618,-0.71961 2.14108,-1.07943 3.7047,-1.07943 0.39089,0 0.78178,0.0222 1.1727,0.0666 0.39089,0.0444 0.75514,0.0977 1.09275,0.15993 0.33758,0.0622 0.6352,0.12883 0.89286,0.19989 0.25763,0.0711 0.45752,0.13326 0.59967,0.18657 l -0.45309,2.13219 c -0.26652,-0.14215 -0.68408,-0.28873 -1.25268,-0.43977 -0.56857,-0.15104 -1.25265,-0.22653 -2.05221,-0.22653 -0.69297,0 -1.2971,0.13769 -1.81239,0.4131 -0.51526,0.27541 -0.77292,0.70629 -0.77292,1.29264 0,0.30205 0.0578,0.5686 0.17325,0.79959 0.11551,0.23096 0.29319,0.43974 0.53304,0.62631 0.23988,0.18657 0.5375,0.35982 0.89286,0.51972 0.35536,0.15993 0.78181,0.32872 1.27932,0.5064 0.65744,0.24877 1.24379,0.49308 1.75905,0.73296 0.51529,0.23985 0.95506,0.51972 1.31931,0.83955 0.36425,0.31983 0.64409,0.70629 0.83955,1.15938 0.19546,0.45309 0.29316,1.00834 0.29316,1.66578 0,1.27929 -0.4753,2.24767 -1.4259,2.90511 -0.9506,0.65741 -2.30541,0.98613 -4.06449,0.98613 -1.22601,0 -2.1855,-0.10216 -2.87847,-0.30651 -0.69294,-0.20432 -1.16381,-0.35979 -1.41255,-0.46641 l 0.45309,-2.13219 c 0.28427,0.10662 0.73736,0.26652 1.35927,0.47973 0.62188,0.21324 1.44811,0.31983 2.47866,0.31983 z"
         id="path10-2"
         style="clip-rule:evenodd;fill:#0091a2;fill-opacity:1;fill-rule:evenodd;image-rendering:optimizeQuality;shape-rendering:geometricPrecision;text-rendering:geometricPrecision" />
      <path
         class="fil0"
         d="m -388.66521,-267.17253 c 0,-1.22601 0.17768,-2.29655 0.53304,-3.21162 0.35539,-0.91507 0.82623,-1.67467 1.41258,-2.27877 0.58635,-0.60413 1.26157,-1.05722 2.0256,-1.3593 0.76403,-0.30205 1.54584,-0.45309 2.3454,-0.45309 1.86567,0 3.29603,0.58192 4.29105,1.74573 0.99502,1.16384 1.49253,2.93621 1.49253,5.31717 0,0.10662 0,0.24431 0,0.4131 0,0.16882 -0.009,0.32429 -0.0266,0.46644 l -9.48828,0 c 0.10662,1.43922 0.52418,2.53197 1.25268,3.27825 0.7285,0.74625 1.86567,1.11939 3.41151,1.11939 0.87065,0 1.60358,-0.0755 2.19882,-0.22653 0.59524,-0.15104 1.04387,-0.29762 1.34595,-0.43977 l 0.34647,2.07888 c -0.30205,0.1599 -0.83066,0.32872 -1.5858,0.5064 -0.75517,0.17768 -1.6125,0.26652 -2.57196,0.26652 -1.20826,0 -2.25213,-0.18214 -3.13167,-0.54639 -0.87954,-0.36425 -1.60358,-0.86619 -2.17218,-1.50585 -0.56857,-0.63966 -0.99059,-1.39926 -1.26597,-2.27877 -0.27541,-0.87954 -0.41313,-1.84346 -0.41313,-2.89179 z m 9.51492,-1.35927 c 0.0178,-1.11942 -0.26209,-2.03892 -0.83955,-2.75853 -0.57746,-0.71961 -1.37259,-1.07943 -2.38539,-1.07943 -0.5686,0 -1.07054,0.11105 -1.50588,0.33315 -0.43531,0.2221 -0.80399,0.51086 -1.10607,0.86622 -0.30205,0.35536 -0.53747,0.76403 -0.70629,1.22601 -0.16879,0.46198 -0.27984,0.93282 -0.33315,1.41258 l 6.87633,0 z"
         id="path12-1"
         style="clip-rule:evenodd;fill:#0091a2;fill-opacity:1;fill-rule:evenodd;image-rendering:optimizeQuality;shape-rendering:geometricPrecision;text-rendering:geometricPrecision" />
      <path
         class="fil0"
         d="m -372.99361,-273.72903 c 0.5686,-0.14215 1.31931,-0.29319 2.25213,-0.45309 0.93285,-0.15993 2.01225,-0.23988 3.23826,-0.23988 0.88843,0 1.63468,0.11994 2.23881,0.35982 0.60413,0.23985 1.11053,0.59078 1.5192,1.05276 0.12437,-0.0888 0.31983,-0.21321 0.58635,-0.37314 0.26652,-0.1599 0.59524,-0.31537 0.98613,-0.46641 0.39092,-0.15104 0.82623,-0.2843 1.30596,-0.39978 0.47976,-0.11551 0.99505,-0.17325 1.54584,-0.17325 1.06611,0 1.93676,0.15547 2.61195,0.46641 0.67519,0.31097 1.2038,0.75071 1.58583,1.31931 0.382,0.56857 0.63966,1.24379 0.77292,2.02557 0.13326,0.78181 0.19989,1.63468 0.19989,2.55864 l 0,7.78251 -2.47869,0 0,-7.24947 c 0,-0.81734 -0.04,-1.51917 -0.11994,-2.10552 -0.08,-0.58635 -0.23096,-1.075 -0.45309,-1.46589 -0.2221,-0.39089 -0.52415,-0.67965 -0.90618,-0.86622 -0.382,-0.18654 -0.87508,-0.27984 -1.47921,-0.27984 -0.83509,0 -1.52363,0.11105 -2.06556,0.33315 -0.54193,0.2221 -0.91061,0.42202 -1.10607,0.5997 0.14215,0.46195 0.24877,0.96835 0.31983,1.51917 0.0711,0.55082 0.10662,1.12828 0.10662,1.73241 l 0,7.78251 -2.47869,0 0,-7.24947 c 0,-0.81734 -0.0444,-1.51917 -0.13326,-2.10552 -0.0888,-0.58635 -0.24431,-1.075 -0.46641,-1.46589 -0.2221,-0.39089 -0.52418,-0.67965 -0.90618,-0.86622 -0.38203,-0.18654 -0.86622,-0.27984 -1.45257,-0.27984 -0.24874,0 -0.51526,0.009 -0.79956,0.0267 -0.28431,0.0178 -0.55526,0.04 -0.81292,0.0666 -0.25762,0.0266 -0.49305,0.0577 -0.70629,0.0933 -0.2132,0.0355 -0.35535,0.0622 -0.42641,0.0799 l 0,11.7004 -2.47869,0 0,-13.4595 z"
         id="path14-7-05"
         style="clip-rule:evenodd;fill:#0091a2;fill-opacity:1;fill-rule:evenodd;image-rendering:optimizeQuality;shape-rendering:geometricPrecision;text-rendering:geometricPrecision" />
      <path
         class="fil0"
         d="m -350.81881,-267.17253 c 0,-1.22601 0.17768,-2.29655 0.53304,-3.21162 0.35539,-0.91507 0.82623,-1.67467 1.41258,-2.27877 0.58635,-0.60413 1.26157,-1.05722 2.0256,-1.3593 0.76403,-0.30205 1.54584,-0.45309 2.3454,-0.45309 1.86567,0 3.29603,0.58192 4.29105,1.74573 0.99502,1.16384 1.49253,2.93621 1.49253,5.31717 0,0.10662 0,0.24431 0,0.4131 0,0.16882 -0.009,0.32429 -0.0266,0.46644 l -9.48828,0 c 0.10662,1.43922 0.52418,2.53197 1.25268,3.27825 0.7285,0.74625 1.86567,1.11939 3.41151,1.11939 0.87065,0 1.60358,-0.0755 2.19882,-0.22653 0.59524,-0.15104 1.04387,-0.29762 1.34595,-0.43977 l 0.34647,2.07888 c -0.30205,0.1599 -0.83066,0.32872 -1.5858,0.5064 -0.75517,0.17768 -1.6125,0.26652 -2.57196,0.26652 -1.20826,0 -2.25213,-0.18214 -3.13167,-0.54639 -0.87954,-0.36425 -1.60358,-0.86619 -2.17218,-1.50585 -0.56857,-0.63966 -0.99059,-1.39926 -1.26597,-2.27877 -0.27541,-0.87954 -0.41313,-1.84346 -0.41313,-2.89179 z m 9.51492,-1.35927 c 0.0178,-1.11942 -0.26209,-2.03892 -0.83955,-2.75853 -0.57746,-0.71961 -1.37259,-1.07943 -2.38539,-1.07943 -0.5686,0 -1.07054,0.11105 -1.50588,0.33315 -0.43531,0.2221 -0.80399,0.51086 -1.10607,0.86622 -0.30205,0.35536 -0.53747,0.76403 -0.70629,1.22601 -0.16879,0.46198 -0.27984,0.93282 -0.33315,1.41258 l 6.87633,0 z"
         id="path16-5-85"
         style="clip-rule:evenodd;fill:#0091a2;fill-opacity:1;fill-rule:evenodd;image-rendering:optimizeQuality;shape-rendering:geometricPrecision;text-rendering:geometricPrecision" />
      <path
         class="fil0"
         d="m -335.14721,-273.72903 c 0.5686,-0.14215 1.32374,-0.29319 2.26545,-0.45309 0.94174,-0.15993 2.0256,-0.23988 3.25161,-0.23988 1.10164,0 2.01668,0.15547 2.74518,0.46641 0.7285,0.31097 1.31042,0.74628 1.74576,1.30599 0.43531,0.55968 0.74182,1.23044 0.9195,2.01225 0.17768,0.78181 0.26652,1.64357 0.26652,2.58528 l 0,7.78251 -2.47869,0 0,-7.24947 c 0,-0.85287 -0.0577,-1.58137 -0.17322,-2.1855 -0.11551,-0.6041 -0.30651,-1.09275 -0.57303,-1.46586 -0.26652,-0.37314 -0.62188,-0.64412 -1.06611,-0.81291 -0.4442,-0.16879 -0.99502,-0.2532 -1.65243,-0.2532 -0.26652,0 -0.54193,0.009 -0.82623,0.0267 -0.2843,0.0178 -0.55525,0.04 -0.81291,0.0666 -0.25763,0.0266 -0.48862,0.0577 -0.69297,0.0933 -0.20432,0.0355 -0.3509,0.0622 -0.43974,0.0799 l 0,11.7004 -2.47869,0 0,-13.4595 z"
         id="path18-3-507"
         style="clip-rule:evenodd;fill:#0091a2;fill-opacity:1;fill-rule:evenodd;image-rendering:optimizeQuality;shape-rendering:geometricPrecision;text-rendering:geometricPrecision" />
      <path
         class="fil0"
         d="m -309.90731,-267.17253 c 0,-1.22601 0.17768,-2.29655 0.53304,-3.21162 0.35539,-0.91507 0.82623,-1.67467 1.41258,-2.27877 0.58635,-0.60413 1.26157,-1.05722 2.0256,-1.3593 0.76403,-0.30205 1.54584,-0.45309 2.3454,-0.45309 1.86567,0 3.29603,0.58192 4.29105,1.74573 0.99502,1.16384 1.49253,2.93621 1.49253,5.31717 0,0.10662 0,0.24431 0,0.4131 0,0.16882 -0.009,0.32429 -0.0266,0.46644 l -9.48828,0 c 0.10662,1.43922 0.52418,2.53197 1.25268,3.27825 0.7285,0.74625 1.86567,1.11939 3.41151,1.11939 0.87065,0 1.60358,-0.0755 2.19882,-0.22653 0.59524,-0.15104 1.04387,-0.29762 1.34595,-0.43977 l 0.34647,2.07888 c -0.30205,0.1599 -0.83066,0.32872 -1.5858,0.5064 -0.75517,0.17768 -1.6125,0.26652 -2.57196,0.26652 -1.20826,0 -2.25213,-0.18214 -3.13167,-0.54639 -0.87954,-0.36425 -1.60358,-0.86619 -2.17218,-1.50585 -0.56857,-0.63966 -0.99059,-1.39926 -1.26597,-2.27877 -0.27541,-0.87954 -0.41313,-1.84346 -0.41313,-2.89179 z m 9.51492,-1.35927 c 0.0178,-1.11942 -0.26209,-2.03892 -0.83955,-2.75853 -0.57746,-0.71961 -1.37259,-1.07943 -2.38539,-1.07943 -0.5686,0 -1.07054,0.11105 -1.50588,0.33315 -0.43531,0.2221 -0.80399,0.51086 -1.10607,0.86622 -0.30205,0.35536 -0.53747,0.76403 -0.70629,1.22601 -0.16879,0.46198 -0.27984,0.93282 -0.33315,1.41258 l 6.87633,0 z"
         id="path20-5-3"
         style="clip-rule:evenodd;fill:#0091a2;fill-opacity:1;fill-rule:evenodd;image-rendering:optimizeQuality;shape-rendering:geometricPrecision;text-rendering:geometricPrecision" />
      <path
         class="fil1"
         d="m -335.12961,-276.87563 c 3.3513,-14.9606 13.6321,-4.86638 13.7483,-4.76285 0.006,-0.36041 -2.46904,-8.938 4.17072,-12.7203 -3.58428,4.44933 -3.51617,9.22541 -2.29863,12.2249 2.35816,-5.3273 14.5237,-8.92796 18.8955,2.92415 -7.9165,-5.45969 -14.9024,-4.36239 -17.0958,-1.20097 -1.85008,2.66655 2.97547,5.73958 0.28898,13.1979 -1.35327,3.757 0.0222,6.50692 5.1944,4.43788 0.15991,0.68408 0.31981,1.36816 0.47973,2.05224 -0.24877,0.12437 -0.68408,0.27984 -1.30596,0.46641 -2.72151,0.81645 -6.05557,0.20127 -6.72975,-2.93175 -0.65256,-3.03248 0.68871,-3.70355 1.2621,-6.95844 2.37138,-13.4611 -12.8272,-14.0393 -16.6096,-6.72916 z"
         id="path22-6-8"
         style="clip-rule:evenodd;fill:#a39b00;fill-opacity:1;fill-rule:evenodd;image-rendering:optimizeQuality;shape-rendering:geometricPrecision;text-rendering:geometricPrecision" />
      <path
         class="fil2"
         d="m -397.56059,-280.3952 -1.94204,0 0,0.0193 c 0,0.35111 0.0661,0.61609 0.19818,0.79503 0.13214,0.17887 0.32769,0.26835 0.58514,0.26835 0.19731,0 0.35951,-0.0517 0.48571,-0.15552 0.12708,-0.10355 0.21484,-0.25748 0.26587,-0.46146 l 0.36282,0 c -0.0718,0.2859 -0.20482,0.49995 -0.39792,0.6437 -0.19312,0.14382 -0.44811,0.21569 -0.76244,0.21569 -0.38119,0 -0.68632,-0.12544 -0.9179,-0.37617 -0.23071,-0.24997 -0.34608,-0.58268 -0.34608,-0.99734 0,-0.41217 0.11367,-0.74318 0.34022,-0.9948 0.22739,-0.25166 0.525,-0.37707 0.89449,-0.37707 0.39294,0 0.69554,0.12133 0.90536,0.36365 0.21067,0.24245 0.3202,0.59439 0.32859,1.05668 z m -0.53168,-0.25995 c -0.0109,-0.30348 -0.0736,-0.53249 -0.19228,-0.68638 -0.11791,-0.15462 -0.28845,-0.23153 -0.51081,-0.23153 -0.20729,0 -0.37031,0.0777 -0.48909,0.23237 -0.11942,0.1555 -0.19226,0.38372 -0.21818,0.68554 z m 1.06332,1.36933 0,-0.60777 0.25999,0 c 0.007,0.19483 0.0677,0.34023 0.18225,0.43641 0.11545,0.096 0.28509,0.14461 0.51075,0.14461 0.20234,0 0.35701,-0.0376 0.46318,-0.11367 0.10615,-0.0761 0.15882,-0.18641 0.15882,-0.33188 0,-0.11462 -0.0384,-0.20649 -0.11628,-0.27669 -0.0777,-0.0702 -0.24155,-0.14545 -0.49071,-0.22573 l -0.32604,-0.11025 c -0.22403,-0.0718 -0.38623,-0.16132 -0.48651,-0.2692 -0.10027,-0.10793 -0.1505,-0.24495 -0.1505,-0.41124 0,-0.23829 0.0878,-0.42557 0.2625,-0.56096 0.17473,-0.13542 0.4163,-0.2032 0.72479,-0.2032 0.13713,0 0.28171,0.0175 0.43303,0.0535 0.15215,0.0358 0.30932,0.0888 0.47066,0.15717 l 0,0.56848 -0.25999,0 c -0.007,-0.168 -0.0652,-0.30011 -0.17639,-0.39456 -0.11121,-0.0945 -0.26168,-0.14211 -0.45306,-0.14211 -0.18897,0 -0.33274,0.0334 -0.42972,0.10026 -0.097,0.0669 -0.14548,0.16716 -0.14548,0.30091 0,0.10957 0.0368,0.1973 0.11039,0.26335 0.0736,0.0669 0.2199,0.13378 0.44054,0.20231 l 0.35784,0.11039 c 0.24662,0.0767 0.42382,0.17216 0.53251,0.28754 0.10875,0.11545 0.16305,0.26333 0.16305,0.44473 0,0.24666 -0.0945,0.44061 -0.28262,0.58188 -0.18892,0.14124 -0.44884,0.21148 -0.78076,0.21148 -0.16805,0 -0.33191,-0.0185 -0.49245,-0.0543 -0.15962,-0.036 -0.32013,-0.0895 -0.47982,-0.16138 z m 4.87132,-0.63703 c -0.0635,0.27756 -0.18643,0.48906 -0.36699,0.63454 -0.18143,0.14546 -0.41548,0.21817 -0.70312,0.21817 -0.37865,0 -0.68383,-0.12529 -0.91369,-0.37618 -0.22989,-0.24995 -0.34529,-0.58269 -0.34529,-0.99733 0,-0.4163 0.11545,-0.74904 0.34529,-0.99819 0.22986,-0.24911 0.53504,-0.37369 0.91369,-0.37369 0.16475,0 0.32859,0.0192 0.49162,0.0577 0.16384,0.0383 0.32769,0.096 0.49237,0.17473 l 0,0.66626 -0.26166,0 c -0.0343,-0.22821 -0.10861,-0.39543 -0.22402,-0.49991 -0.11545,-0.10451 -0.27923,-0.1563 -0.49328,-0.1563 -0.24325,0 -0.4272,0.0945 -0.5509,0.28251 -0.12448,0.18894 -0.18643,0.47072 -0.18643,0.84688 0,0.37533 0.0618,0.65795 0.18479,0.84684 0.12366,0.18977 0.30758,0.28426 0.55254,0.28426 0.19396,0 0.34861,-0.0509 0.46483,-0.15213 0.11627,-0.10123 0.19477,-0.2542 0.23743,-0.45818 l 0.36282,0 z m 1.73881,0.61028 c 0.24165,0 0.42385,-0.0953 0.54759,-0.28671 0.12284,-0.19062 0.18477,-0.47234 0.18477,-0.84438 0,-0.37284 -0.0618,-0.65373 -0.18477,-0.84434 -0.12366,-0.18978 -0.30594,-0.28506 -0.54759,-0.28506 -0.24157,0 -0.4238,0.0952 -0.54751,0.28506 -0.12284,0.19061 -0.18478,0.4715 -0.18478,0.84434 0,0.37204 0.0618,0.65376 0.18642,0.84438 0.12366,0.19139 0.30595,0.28671 0.54587,0.28671 z m 0,0.24243 c -0.37863,0 -0.68299,-0.12529 -0.9137,-0.37618 -0.22987,-0.24995 -0.34527,-0.58269 -0.34527,-0.99733 0,-0.41548 0.1145,-0.74738 0.34444,-0.99736 0.22904,-0.24994 0.53417,-0.37452 0.91453,-0.37452 0.38042,0 0.68554,0.12462 0.91461,0.37452 0.22985,0.24998 0.34441,0.58188 0.34441,0.99736 0,0.41467 -0.11463,0.74738 -0.34441,0.99733 -0.22907,0.25079 -0.53419,0.37618 -0.91461,0.37618 z m 2.53891,-0.33109 0.42635,0 0,0.26002 -1.31082,0 0,-0.26002 0.43387,0 0,-3.29125 -0.43387,0 0,-0.26001 0.88447,0 z m 2.57235,-0.55839 0,-0.55094 -0.58016,0 c -0.22409,0 -0.3904,0.0487 -0.49991,0.14461 -0.10957,0.0962 -0.16387,0.24413 -0.16387,0.44393 0,0.18058 0.0553,0.3244 0.16633,0.43055 0.11121,0.10601 0.26167,0.15964 0.45063,0.15964 0.18811,0 0.33943,-0.0576 0.45392,-0.17383 0.11545,-0.11627 0.17306,-0.26754 0.17306,-0.45396 z m 0.4506,-0.80757 0,1.36596 0.40128,0 0,0.26002 -0.85188,0 0,-0.28169 c -0.0994,0.12037 -0.21485,0.20983 -0.34527,0.26663 -0.13049,0.0577 -0.28341,0.0862 -0.45814,0.0862 -0.2892,0 -0.51827,-0.0769 -0.68802,-0.22988 -0.16972,-0.15387 -0.25492,-0.36116 -0.25492,-0.62199 0,-0.27001 0.0968,-0.47904 0.29174,-0.627 0.19395,-0.14878 0.46815,-0.22317 0.82261,-0.22317 l 0.632,0 0,-0.17895 c 0,-0.1973 -0.0602,-0.35026 -0.17974,-0.45897 -0.12037,-0.10874 -0.28924,-0.16295 -0.50664,-0.16295 -0.17968,0 -0.32265,0.041 -0.42884,0.12215 -0.10601,0.0819 -0.17222,0.20316 -0.19811,0.36286 l -0.23242,0 0,-0.52672 c 0.15715,-0.0669 0.30933,-0.11709 0.45645,-0.15041 0.14799,-0.0334 0.29258,-0.0502 0.43303,-0.0502 0.36034,0 0.63534,0.0895 0.82432,0.26838 0.18811,0.17892 0.28255,0.43887 0.28255,0.77998 z m 5.5702,1.57695 0.43138,0 0,0.26001 -0.88196,0 0,-0.40714 c -0.0878,0.16388 -0.20065,0.28426 -0.33691,0.362 -0.13624,0.0777 -0.30511,0.11627 -0.5058,0.11627 -0.32013,0 -0.58179,-0.12707 -0.78497,-0.38119 -0.20314,-0.25332 -0.3051,-0.58436 -0.3051,-0.99232 0,-0.40882 0.10122,-0.73907 0.30345,-0.99233 0.20319,-0.25328 0.46478,-0.37956 0.78662,-0.37956 0.20069,0 0.36957,0.0384 0.5058,0.11627 0.13624,0.0777 0.24912,0.19811 0.33691,0.36115 l 0,-1.35431 -0.42633,0 0,-0.26002 0.87691,0 z m -0.45058,-0.91286 0,-0.25749 c 0,-0.31181 -0.0602,-0.55008 -0.17975,-0.71475 -0.12038,-0.1647 -0.29422,-0.24748 -0.52333,-0.24748 -0.23153,0 -0.4071,0.0911 -0.52582,0.2742 -0.11791,0.18312 -0.17722,0.45479 -0.17722,0.81594 0,0.35864 0.0592,0.63034 0.17722,0.81511 0.1186,0.18472 0.29429,0.27669 0.52582,0.27669 0.22911,0 0.40293,-0.0819 0.52333,-0.24577 0.11941,-0.16467 0.17975,-0.40295 0.17975,-0.71645 z m 3.74689,-0.0811 -1.942,0 0,0.0193 c 0,0.3511 0.0661,0.61609 0.19815,0.79502 0.13214,0.17885 0.32769,0.26835 0.58518,0.26835 0.19729,0 0.35947,-0.0518 0.48567,-0.15552 0.12708,-0.10355 0.21487,-0.25748 0.26588,-0.46148 l 0.3628,0 c -0.072,0.28592 -0.20481,0.49997 -0.3979,0.64372 -0.19313,0.1438 -0.44812,0.2157 -0.76246,0.2157 -0.38119,0 -0.68631,-0.1253 -0.91788,-0.3762 -0.23072,-0.24994 -0.34611,-0.58267 -0.34611,-0.99732 0,-0.41217 0.11368,-0.74316 0.34024,-0.9948 0.2274,-0.25169 0.52498,-0.37707 0.89452,-0.37707 0.39292,0 0.69551,0.12133 0.90536,0.36365 0.21067,0.24246 0.32018,0.59439 0.32855,1.0567 z m -0.53167,-0.25997 c -0.0109,-0.30347 -0.0736,-0.53249 -0.19229,-0.68636 -0.11792,-0.15464 -0.28845,-0.23153 -0.51083,-0.23153 -0.20727,0 -0.3703,0.0777 -0.48903,0.23237 -0.11942,0.1555 -0.19229,0.38371 -0.21818,0.68552 z m 5.09448,0.25997 -1.942,0 0,0.0193 c 0,0.3511 0.0661,0.61609 0.19811,0.79502 0.13214,0.17885 0.32772,0.26835 0.5852,0.26835 0.1973,0 0.35949,-0.0518 0.48569,-0.15552 0.12708,-0.10355 0.21486,-0.25748 0.26587,-0.46148 l 0.36283,0 c -0.0718,0.28592 -0.20483,0.49997 -0.39793,0.64372 -0.19312,0.1438 -0.44812,0.2157 -0.76248,0.2157 -0.38117,0 -0.68631,-0.1253 -0.91788,-0.3762 -0.23069,-0.24994 -0.34607,-0.58267 -0.34607,-0.99732 0,-0.41217 0.11367,-0.74316 0.34023,-0.9948 0.22738,-0.25169 0.525,-0.37707 0.89449,-0.37707 0.39297,0 0.69552,0.12133 0.90538,0.36365 0.21065,0.24246 0.32018,0.59439 0.32856,1.0567 z m -0.53169,-0.25997 c -0.0109,-0.30347 -0.0736,-0.53249 -0.19226,-0.68636 -0.11791,-0.15464 -0.28845,-0.23153 -0.51082,-0.23153 -0.20732,0 -0.37035,0.0777 -0.48908,0.23237 -0.11942,0.1555 -0.19227,0.38371 -0.21815,0.68552 z m 0.98724,1.51397 0,-0.26003 0.40633,0 0,-2.08158 -0.43137,0 0,-0.26166 0.88194,0 0,0.46229 c 0.0836,-0.17638 0.19145,-0.30932 0.32441,-0.39876 0.13282,-0.0895 0.28757,-0.1346 0.46393,-0.1346 0.28757,0 0.49905,0.0828 0.63453,0.24747 0.13542,0.16473 0.20311,0.42138 0.20311,0.77076 l 0,1.3961 0.40129,0 0,0.26001 -1.24396,0 0,-0.26001 0.38962,0 0,-1.25395 c 0,-0.3177 -0.0393,-0.53589 -0.11792,-0.65457 -0.0777,-0.11791 -0.21566,-0.17725 -0.41382,-0.17725 -0.20899,0 -0.36783,0.0761 -0.47736,0.22908 -0.10956,0.15216 -0.16384,0.37453 -0.16384,0.66627 l 0,1.1904 0.39206,0 0,0.26003 z m 3.30633,-0.14463 0,-0.60777 0.26002,0 c 0.007,0.19483 0.0677,0.34024 0.18224,0.4364 0.11545,0.096 0.28507,0.14465 0.51076,0.14465 0.20233,0 0.35702,-0.0376 0.46318,-0.11367 0.10615,-0.0761 0.15882,-0.18643 0.15882,-0.33187 0,-0.11463 -0.0384,-0.2065 -0.11627,-0.27671 -0.0777,-0.0702 -0.24157,-0.14547 -0.49073,-0.22573 l -0.32605,-0.11026 c -0.22398,-0.0718 -0.38618,-0.16134 -0.48651,-0.2692 -0.10027,-0.10792 -0.15049,-0.24494 -0.15049,-0.41128 0,-0.23824 0.0878,-0.42554 0.2625,-0.56093 0.17474,-0.13542 0.41633,-0.20316 0.7248,-0.20316 0.13714,0 0.28169,0.0175 0.43305,0.0535 0.15214,0.0358 0.30931,0.0888 0.47068,0.15715 l 0,0.56848 -0.26004,0 c -0.007,-0.168 -0.0652,-0.3001 -0.17636,-0.39455 -0.11121,-0.0945 -0.26169,-0.14212 -0.45309,-0.14212 -0.18896,0 -0.33272,0.0334 -0.4297,0.10026 -0.097,0.0669 -0.14549,0.16716 -0.14549,0.30094 0,0.10957 0.0367,0.19729 0.11039,0.26333 0.0736,0.0669 0.21984,0.13378 0.44051,0.2023 l 0.35784,0.11025 c 0.2466,0.0769 0.42381,0.17216 0.53251,0.28756 0.10874,0.11545 0.16303,0.26332 0.16303,0.44472 0,0.24665 -0.0945,0.4406 -0.28259,0.58189 -0.18893,0.14124 -0.44887,0.21148 -0.78079,0.21148 -0.16804,0 -0.33189,-0.0185 -0.49241,-0.0543 -0.15967,-0.036 -0.32014,-0.0895 -0.47987,-0.1614 z m 2.77965,-3.26702 c 0,-0.0752 0.0276,-0.14043 0.0821,-0.19565 0.0553,-0.0559 0.12037,-0.0834 0.1973,-0.0834 0.0754,0 0.13961,0.0276 0.19482,0.0834 0.0543,0.0553 0.0821,0.12037 0.0821,0.19565 0,0.0767 -0.0268,0.14212 -0.0811,0.1956 -0.0535,0.0544 -0.11859,0.0811 -0.19563,0.0811 -0.0769,0 -0.1421,-0.0268 -0.19729,-0.0811 -0.0543,-0.0535 -0.0821,-0.11859 -0.0821,-0.1956 z m 0.57521,3.15162 0.42633,0 0,0.26003 -1.30833,0 0,-0.26003 0.43139,0 0,-2.08158 -0.43139,0 0,-0.26166 0.882,0 z m 0.74735,0.26003 0,-0.26003 0.40633,0 0,-2.08158 -0.43139,0 0,-0.26166 0.88197,0 0,0.46229 c 0.0837,-0.17638 0.19145,-0.30932 0.32437,-0.39876 0.13296,-0.0895 0.28761,-0.1346 0.46397,-0.1346 0.28758,0 0.49907,0.0828 0.63453,0.24746 0.13542,0.16474 0.20312,0.42139 0.20312,0.77076 l 0,1.39609 0.40129,0 0,0.26003 -1.24397,0 0,-0.26003 0.38959,0 0,-1.25394 c 0,-0.31769 -0.0393,-0.53588 -0.11791,-0.65456 -0.0778,-0.11791 -0.21568,-0.17725 -0.41382,-0.17725 -0.20902,0 -0.36782,0.0761 -0.47736,0.22906 -0.10957,0.15218 -0.16385,0.37455 -0.16385,0.66629 l 0,1.1904 0.39205,0 0,0.26003 z m 4.53355,-0.17135 c 0.24165,0 0.42387,-0.0953 0.54761,-0.28675 0.12283,-0.19061 0.18476,-0.47233 0.18476,-0.84437 0,-0.37286 -0.062,-0.65374 -0.18476,-0.84435 -0.1238,-0.18976 -0.30596,-0.28504 -0.54761,-0.28504 -0.24157,0 -0.4238,0.0952 -0.54751,0.28504 -0.12284,0.19061 -0.18482,0.47149 -0.18482,0.84435 0,0.37204 0.0621,0.65376 0.18646,0.84437 0.1238,0.1914 0.30596,0.28675 0.54587,0.28675 z m 0,0.24241 c -0.37867,0 -0.683,-0.12544 -0.91369,-0.3762 -0.22989,-0.24995 -0.34529,-0.58266 -0.34529,-0.99733 0,-0.41547 0.1145,-0.74738 0.34444,-0.99735 0.22904,-0.24994 0.53417,-0.37452 0.91454,-0.37452 0.38041,0 0.68555,0.12462 0.91457,0.37452 0.22989,0.24997 0.34445,0.58188 0.34445,0.99735 0,0.41467 -0.11463,0.74739 -0.34445,0.99733 -0.22902,0.2508 -0.53416,0.3762 -0.91457,0.3762 z m 5.93787,-2.20167 0,2.28556 c 0,0.37369 -0.10287,0.66213 -0.30849,0.8653 -0.20563,0.20312 -0.49903,0.30512 -0.87941,0.30512 -0.17143,0 -0.33526,-0.0159 -0.49243,-0.0469 -0.15635,-0.0309 -0.30678,-0.0777 -0.45058,-0.13961 l 0,-0.54592 0.2349,0 c 0.0293,0.16969 0.0986,0.29432 0.20817,0.37201 0.10957,0.0787 0.26668,0.11778 0.47066,0.11778 0.26416,0 0.45812,-0.0744 0.58182,-0.22404 0.12284,-0.14964 0.18478,-0.38452 0.18478,-0.70391 l 0,-0.35025 c -0.0878,0.16301 -0.20066,0.28341 -0.3369,0.36115 -0.13624,0.0777 -0.30512,0.11627 -0.50581,0.11627 -0.32012,0 -0.5818,-0.12708 -0.78496,-0.38116 -0.20316,-0.25332 -0.30511,-0.58435 -0.30511,-0.99234 0,-0.4088 0.10123,-0.73904 0.30346,-0.99232 0.20313,-0.25329 0.46478,-0.37954 0.78661,-0.37954 0.20069,0 0.36954,0.0384 0.50581,0.11627 0.13624,0.0777 0.2491,0.19811 0.3369,0.36115 l 0,-0.40631 0.88197,0 0,0.26168 -0.43139,0 z m -0.45058,0.91123 c 0,-0.31181 -0.0602,-0.55008 -0.17975,-0.71476 -0.12037,-0.16471 -0.29426,-0.24748 -0.52334,-0.24748 -0.23154,0 -0.40708,0.0911 -0.52585,0.2742 -0.11778,0.18312 -0.1772,0.45479 -0.1772,0.81595 0,0.35862 0.0592,0.63034 0.1772,0.81512 0.11873,0.18471 0.29431,0.27666 0.52585,0.27666 0.22908,0 0.40293,-0.0819 0.52334,-0.24577 0.11942,-0.16466 0.17975,-0.40294 0.17975,-0.71644 z m 3.02459,0.61196 0,-0.55097 -0.58015,0 c -0.22409,0 -0.39041,0.0484 -0.49994,0.14463 -0.10956,0.0962 -0.16386,0.24414 -0.16386,0.44395 0,0.18055 0.0553,0.32435 0.16634,0.43053 0.11121,0.10615 0.26169,0.15964 0.45064,0.15964 0.18809,0 0.33941,-0.0576 0.45389,-0.17384 0.11545,-0.11627 0.17308,-0.26752 0.17308,-0.45394 z m 0.45061,-0.80757 0,1.36596 0.40127,0 0,0.26001 -0.85188,0 0,-0.28169 c -0.0994,0.12037 -0.21486,0.20982 -0.34526,0.26663 -0.13049,0.0577 -0.28341,0.0862 -0.45816,0.0862 -0.2892,0 -0.51826,-0.0769 -0.68803,-0.22988 -0.16967,-0.15386 -0.25491,-0.36116 -0.25491,-0.622 0,-0.27001 0.0969,-0.47904 0.29176,-0.62698 0.19391,-0.14881 0.46813,-0.22318 0.82262,-0.22318 l 0.63198,0 0,-0.17893 c 0,-0.19731 -0.0602,-0.35027 -0.17976,-0.45897 -0.12037,-0.10875 -0.2892,-0.16296 -0.50659,-0.16296 -0.17973,0 -0.3227,0.041 -0.42885,0.12202 -0.10615,0.0819 -0.17226,0.20317 -0.19815,0.36286 l -0.23241,0 0,-0.52668 c 0.15717,-0.0669 0.30934,-0.11696 0.45643,-0.15044 0.14802,-0.0334 0.29259,-0.0502 0.43306,-0.0502 0.36031,0 0.63535,0.0895 0.82431,0.26836 0.18809,0.17891 0.28257,0.43888 0.28257,0.77999 z m 1.57165,1.36596 0.42633,0 0,0.26001 -1.3108,0 0,-0.26001 0.43384,0 0,-3.29126 -0.43384,0 0,-0.26 0.88447,0 z m 3.29465,-0.99395 -1.94202,0 0,0.0193 c 0,0.35109 0.0661,0.61607 0.19811,0.795 0.13214,0.17887 0.32774,0.26835 0.5852,0.26835 0.19729,0 0.35949,-0.0517 0.48571,-0.15548 0.12708,-0.10369 0.21484,-0.25749 0.26588,-0.4615 l 0.36279,0 c -0.0718,0.28591 -0.20482,0.49998 -0.39791,0.64371 -0.19313,0.14381 -0.44813,0.21569 -0.76246,0.21569 -0.38117,0 -0.68631,-0.1253 -0.91789,-0.37617 -0.23072,-0.24995 -0.34609,-0.58269 -0.34609,-0.99733 0,-0.41217 0.11367,-0.74318 0.34022,-0.99481 0.22738,-0.25166 0.52501,-0.37707 0.89449,-0.37707 0.39297,0 0.69556,0.12133 0.90538,0.36366 0.21067,0.24245 0.32019,0.59441 0.32859,1.0567 z m -0.53167,-0.25999 c -0.0109,-0.30347 -0.0736,-0.53249 -0.1923,-0.68635 -0.11791,-0.15464 -0.28844,-0.23155 -0.51084,-0.23155 -0.20727,0 -0.3703,0.0777 -0.48906,0.23238 -0.11941,0.1555 -0.19227,0.38369 -0.21815,0.68552 z m 3.41493,-0.82764 0,2.28556 c 0,0.37369 -0.10286,0.66213 -0.30848,0.8653 -0.20562,0.20312 -0.49905,0.30512 -0.8794,0.30512 -0.17143,0 -0.33526,-0.0159 -0.49246,-0.0469 -0.15632,-0.0309 -0.30677,-0.0777 -0.45058,-0.13961 l 0,-0.54592 0.23492,0 c 0.0293,0.16969 0.0986,0.29432 0.20814,0.37201 0.10957,0.0787 0.26674,0.11778 0.47072,0.11778 0.26414,0 0.45807,-0.0744 0.5818,-0.22404 0.12284,-0.14964 0.18476,-0.38452 0.18476,-0.70391 l 0,-0.35025 c -0.0878,0.16301 -0.20065,0.28341 -0.33691,0.36115 -0.13624,0.0777 -0.30511,0.11627 -0.5058,0.11627 -0.32014,0 -0.58181,-0.12708 -0.78497,-0.38119 -0.20316,-0.2533 -0.30512,-0.58433 -0.30512,-0.99233 0,-0.4088 0.10123,-0.73903 0.30348,-0.99232 0.20316,-0.25328 0.46477,-0.37954 0.78661,-0.37954 0.20069,0 0.36957,0.0386 0.5058,0.11627 0.13624,0.0777 0.24913,0.19813 0.33691,0.36115 l 0,-0.4063 0.88197,0 0,0.26169 -0.43139,0 z m -0.45058,0.91123 c 0,-0.31181 -0.0602,-0.55008 -0.17973,-0.71475 -0.12037,-0.16472 -0.29424,-0.24749 -0.52335,-0.24749 -0.23153,0 -0.4071,0.0911 -0.52583,0.2742 -0.11791,0.18312 -0.17721,0.45479 -0.17721,0.81595 0,0.35862 0.0592,0.63034 0.17721,0.81512 0.11873,0.18471 0.2943,0.27666 0.52583,0.27666 0.22911,0 0.40294,-0.0819 0.52335,-0.24577 0.11942,-0.16465 0.17973,-0.40294 0.17973,-0.71644 z m 2.5372,1.25902 c 0.24165,0 0.42386,-0.0953 0.54757,-0.28675 0.12297,-0.19062 0.18481,-0.47234 0.18481,-0.84437 0,-0.37285 -0.062,-0.65373 -0.18481,-0.84435 -0.12366,-0.18974 -0.30592,-0.28505 -0.54757,-0.28505 -0.24155,0 -0.42381,0.0953 -0.54752,0.28505 -0.12298,0.19062 -0.18478,0.4715 -0.18478,0.84435 0,0.37203 0.0618,0.65375 0.18643,0.84437 0.12366,0.19139 0.30596,0.28675 0.54587,0.28675 z m 0,0.2424 c -0.37866,0 -0.68755,-0.13665 -0.91369,-0.37618 -0.24153,-0.25578 -0.34527,-0.58267 -0.34527,-0.99733 0,-0.41548 0.11449,-0.74739 0.34445,-0.99735 0.22902,-0.24996 0.53416,-0.37452 0.91451,-0.37452 0.38042,0 0.68556,0.12448 0.91459,0.37452 0.22988,0.24996 0.34443,0.58187 0.34443,0.99735 0,0.41466 -0.11463,0.74737 -0.34443,0.99733 -0.22903,0.25079 -0.53417,0.37618 -0.91459,0.37618 z"
         id="path24-2-6"
         style="clip-rule:evenodd;fill:#a39b00;fill-opacity:1;fill-rule:evenodd;stroke:none;stroke-opacity:1;image-rendering:optimizeQuality;shape-rendering:geometricPrecision;text-rendering:geometricPrecision" />
    </g>
  </g>
</svg>
