<?xml version="1.0" encoding="UTF-8" standalone="no"?>
<svg
   xmlns:dc="http://purl.org/dc/elements/1.1/"
   xmlns:cc="http://creativecommons.org/ns#"
   xmlns:rdf="http://www.w3.org/1999/02/22-rdf-syntax-ns#"
   xmlns:svg="http://www.w3.org/2000/svg"
   xmlns="http://www.w3.org/2000/svg"
   id="svg4518"
   version="1.1"
   viewBox="0 0 79.107097 26.433381"
   height="99.905693"
   width="298.98746">
  <defs
     id="defs4512" />
  <metadata
     id="metadata4515">
    <rdf:RDF>
      <cc:Work
         rdf:about="">
        <dc:format>image/svg+xml</dc:format>
        <dc:type
           rdf:resource="http://purl.org/dc/dcmitype/StillImage" />
        <dc:title></dc:title>
      </cc:Work>
    </rdf:RDF>
  </metadata>
  <g
     transform="translate(-73.400826,-87.353614)"
     id="layer1">
    <g
       id="g4528"
       transform="matrix(0.35277777,0,0,-0.35277777,-26.763203,227.36014)">
      <g
         id="g4530"
         transform="matrix(0.36626205,0,0,0.36626205,293.26812,326.56728)">
        <path
           d="m 0,0 c 6.018,0 10.479,0.792 13.382,2.375 2.903,1.584 4.355,4.118 4.355,7.602 0,3.59 -1.425,6.44 -4.276,8.552 -2.85,2.111 -7.548,4.487 -14.094,7.126 -3.168,1.267 -6.203,2.56 -9.106,3.88 -2.904,1.32 -5.411,2.877 -7.523,4.672 -2.111,1.795 -3.801,3.959 -5.067,6.493 -1.267,2.534 -1.901,5.648 -1.901,9.344 0,7.284 2.692,13.065 8.077,17.341 5.384,4.275 12.722,6.413 22.013,6.413 2.322,0 4.645,-0.132 6.968,-0.396 2.322,-0.264 4.487,-0.58 6.493,-0.95 2.006,-0.369 3.774,-0.765 5.305,-1.188 1.531,-0.422 2.719,-0.792 3.563,-1.108 L 25.497,57.487 c -1.584,0.844 -4.064,1.715 -7.443,2.613 -3.379,0.897 -7.443,1.346 -12.194,1.346 -4.117,0 -7.708,-0.818 -10.769,-2.455 -3.062,-1.636 -4.593,-4.197 -4.593,-7.681 0,-1.794 0.344,-3.378 1.03,-4.751 0.686,-1.372 1.742,-2.613 3.167,-3.721 C -3.88,41.729 -2.111,40.7 0,39.75 2.112,38.8 4.645,37.797 7.602,36.741 c 3.906,-1.478 7.39,-2.93 10.452,-4.355 3.062,-1.425 5.675,-3.088 7.839,-4.989 2.164,-1.9 3.827,-4.197 4.989,-6.889 1.161,-2.692 1.741,-5.991 1.741,-9.898 0,-7.601 -2.824,-13.355 -8.472,-17.261 -5.648,-3.907 -13.699,-5.86 -24.151,-5.86 -7.285,0 -12.986,0.607 -17.103,1.821 -4.118,1.214 -6.915,2.138 -8.394,2.772 l 2.693,12.669 C -21.115,4.117 -18.423,3.167 -14.728,1.9 -11.033,0.633 -6.123,0 0,0"
           style="fill:#29949d;fill-opacity:1;fill-rule:nonzero;stroke:none"
           id="path4532" />
      </g>
      <g
         id="g4534"
         transform="matrix(0.36626205,0,0,0.36626205,310.43724,337.70388)">
        <path
           d="m 0,0 c 0,7.285 1.056,13.646 3.167,19.083 2.112,5.437 4.909,9.951 8.394,13.54 3.484,3.59 7.496,6.282 12.035,8.077 4.54,1.795 9.186,2.692 13.936,2.692 11.086,0 19.585,-3.458 25.497,-10.373 5.913,-6.915 8.869,-17.446 8.869,-31.594 0,-0.633 0,-1.451 0,-2.454 0,-1.003 -0.053,-1.927 -0.159,-2.772 H 15.361 c 0.634,-8.552 3.115,-15.044 7.443,-19.479 4.329,-4.434 11.086,-6.651 20.271,-6.651 5.174,0 9.529,0.449 13.065,1.346 3.537,0.897 6.203,1.768 7.998,2.613 l 2.059,-12.352 c -1.795,-0.951 -4.936,-1.954 -9.423,-3.009 -4.487,-1.056 -9.581,-1.584 -15.282,-1.584 -7.18,0 -13.382,1.082 -18.608,3.247 -5.226,2.164 -9.529,5.146 -12.907,8.947 -3.379,3.801 -5.886,8.315 -7.523,13.54 C 0.818,-11.957 0,-6.229 0,0 Z m 56.536,8.077 c 0.106,6.651 -1.557,12.115 -4.988,16.39 -3.431,4.276 -8.156,6.414 -14.174,6.414 -3.378,0 -6.361,-0.659 -8.948,-1.979 -2.586,-1.32 -4.777,-3.036 -6.572,-5.147 -1.795,-2.112 -3.193,-4.54 -4.196,-7.285 -1.003,-2.745 -1.663,-5.543 -1.98,-8.393 z"
           style="fill:#29949d;fill-opacity:1;fill-rule:nonzero;stroke:none"
           id="path4536" />
      </g>
      <g
         id="g4538"
         transform="matrix(0.36626205,0,0,0.36626205,344.54305,351.97268)">
        <path
           d="m 0,0 c 3.379,0.844 7.839,1.742 13.382,2.692 5.543,0.951 11.956,1.426 19.241,1.426 5.279,0 9.713,-0.713 13.303,-2.139 3.59,-1.425 6.599,-3.51 9.027,-6.255 0.739,0.528 1.9,1.267 3.484,2.217 1.583,0.95 3.537,1.874 5.859,2.772 2.323,0.897 4.91,1.689 7.76,2.375 2.851,0.686 5.913,1.03 9.186,1.03 6.334,0 11.507,-0.924 15.519,-2.772 4.012,-1.848 7.153,-4.46 9.423,-7.839 2.27,-3.378 3.801,-7.39 4.593,-12.036 0.792,-4.645 1.188,-9.713 1.188,-15.203 V -79.974 H 97.236 v 43.075 c 0,4.856 -0.237,9.027 -0.712,12.511 -0.475,3.484 -1.373,6.387 -2.693,8.71 -1.319,2.323 -3.114,4.038 -5.384,5.147 -2.27,1.108 -5.2,1.663 -8.789,1.663 -4.962,0 -9.054,-0.66 -12.274,-1.98 -3.22,-1.32 -5.41,-2.507 -6.572,-3.563 0.845,-2.745 1.478,-5.754 1.901,-9.027 0.422,-3.273 0.633,-6.704 0.633,-10.294 V -79.974 H 48.618 v 43.075 c 0,4.856 -0.264,9.027 -0.792,12.511 -0.527,3.484 -1.452,6.387 -2.771,8.71 -1.319,2.323 -3.115,4.038 -5.384,5.147 -2.27,1.108 -5.148,1.663 -8.632,1.663 -1.477,0 -3.061,-0.053 -4.75,-0.159 -1.689,-0.105 -3.299,-0.237 -4.83,-0.396 -1.531,-0.158 -2.93,-0.343 -4.197,-0.554 -1.267,-0.211 -2.112,-0.37 -2.534,-0.475 V -79.974 H 0 Z"
           style="fill:#29949d;fill-opacity:1;fill-rule:nonzero;stroke:none"
           id="path4540" />
      </g>
      <g
         id="g4542"
         transform="matrix(0.36626205,0,0,0.36626205,392.80173,337.70388)">
        <path
           d="m 0,0 c 0,7.285 1.056,13.646 3.167,19.083 2.112,5.437 4.91,9.951 8.394,13.54 3.484,3.59 7.496,6.282 12.035,8.077 4.54,1.795 9.186,2.692 13.936,2.692 11.086,0 19.585,-3.458 25.497,-10.373 5.913,-6.915 8.869,-17.446 8.869,-31.594 0,-0.633 0,-1.451 0,-2.454 0,-1.003 -0.053,-1.927 -0.158,-2.772 H 15.361 c 0.634,-8.552 3.115,-15.044 7.444,-19.479 4.328,-4.434 11.085,-6.651 20.271,-6.651 5.173,0 9.528,0.449 13.065,1.346 3.536,0.897 6.202,1.768 7.997,2.613 l 2.059,-12.352 c -1.795,-0.951 -4.936,-1.954 -9.423,-3.009 -4.487,-1.056 -9.581,-1.584 -15.282,-1.584 -7.18,0 -13.382,1.082 -18.608,3.247 -5.226,2.164 -9.528,5.146 -12.907,8.947 -3.378,3.801 -5.886,8.315 -7.522,13.54 C 0.818,-11.957 0,-6.229 0,0 Z m 56.536,8.077 c 0.106,6.651 -1.557,12.115 -4.988,16.39 -3.431,4.276 -8.156,6.414 -14.174,6.414 -3.378,0 -6.361,-0.659 -8.947,-1.979 -2.587,-1.32 -4.777,-3.036 -6.573,-5.147 -1.795,-2.112 -3.193,-4.54 -4.196,-7.285 -1.003,-2.745 -1.663,-5.543 -1.98,-8.393 z"
           style="fill:#29949d;fill-opacity:1;fill-rule:nonzero;stroke:none"
           id="path4544" />
      </g>
      <g
         id="g4546"
         transform="matrix(0.36626205,0,0,0.36626205,426.90769,351.97268)">
        <path
           d="m 0,0 c 3.378,0.844 7.865,1.742 13.461,2.692 5.596,0.951 12.036,1.426 19.32,1.426 6.546,0 11.983,-0.924 16.312,-2.772 4.329,-1.848 7.786,-4.434 10.373,-7.76 2.587,-3.326 4.408,-7.311 5.464,-11.956 1.055,-4.646 1.583,-9.766 1.583,-15.362 V -79.974 H 51.785 v 43.075 c 0,5.068 -0.343,9.396 -1.029,12.986 -0.686,3.589 -1.821,6.493 -3.405,8.71 -1.584,2.217 -3.695,3.827 -6.335,4.83 -2.639,1.003 -5.912,1.505 -9.818,1.505 -1.584,0 -3.22,-0.053 -4.91,-0.159 -1.689,-0.105 -3.299,-0.237 -4.83,-0.396 -1.531,-0.158 -2.903,-0.343 -4.117,-0.554 -1.214,-0.211 -2.085,-0.37 -2.613,-0.475 V -79.974 H 0 Z"
           style="fill:#29949d;fill-opacity:1;fill-rule:nonzero;stroke:none"
           id="path4548" />
      </g>
      <g
         id="g4550"
         transform="matrix(0.36626205,0,0,0.36626205,481.83663,337.70388)">
        <path
           d="m 0,0 c 0,7.285 1.056,13.646 3.168,19.083 2.111,5.437 4.909,9.951 8.393,13.54 3.484,3.59 7.496,6.282 12.036,8.077 4.539,1.795 9.185,2.692 13.936,2.692 11.085,0 19.584,-3.458 25.497,-10.373 5.912,-6.915 8.868,-17.446 8.868,-31.594 0,-0.633 0,-1.451 0,-2.454 0,-1.003 -0.053,-1.927 -0.158,-2.772 H 15.362 c 0.633,-8.552 3.114,-15.044 7.443,-19.479 4.329,-4.434 11.085,-6.651 20.271,-6.651 5.173,0 9.528,0.449 13.065,1.346 3.537,0.897 6.202,1.768 7.997,2.613 l 2.059,-12.352 c -1.795,-0.951 -4.936,-1.954 -9.423,-3.009 -4.487,-1.056 -9.581,-1.584 -15.282,-1.584 -7.179,0 -13.382,1.082 -18.608,3.247 -5.226,2.164 -9.528,5.146 -12.907,8.947 -3.378,3.801 -5.886,8.315 -7.522,13.54 C 0.818,-11.957 0,-6.229 0,0 Z m 56.536,8.077 c 0.106,6.651 -1.557,12.115 -4.988,16.39 -3.431,4.276 -8.155,6.414 -14.174,6.414 -3.378,0 -6.361,-0.659 -8.947,-1.979 -2.587,-1.32 -4.777,-3.036 -6.572,-5.147 -1.795,-2.112 -3.194,-4.54 -4.197,-7.285 -1.003,-2.745 -1.663,-5.543 -1.98,-8.393 z"
           style="fill:#29949d;fill-opacity:1;fill-rule:nonzero;stroke:none"
           id="path4552" />
      </g>
      <g
         id="g4554"
         transform="matrix(0.36626205,0,0,0.36626205,426.946,358.8205)">
        <path
           d="M 0,0 C 19.913,88.894 81,28.915 81.691,28.3 81.726,30.442 67.02,81.409 106.472,103.883 85.175,77.445 85.58,49.066 92.814,31.244 106.826,62.898 179.112,84.293 205.089,13.869 158.05,46.31 116.541,39.79 103.508,21.005 c -10.993,-15.844 17.68,-34.104 1.717,-78.42 -8.041,-22.324 0.132,-38.664 30.865,-26.37 0.95,-4.064 1.9,-8.129 2.85,-12.194 -1.478,-0.739 -4.065,-1.663 -7.76,-2.771 -16.17,-4.851 -35.981,-1.196 -39.987,17.42 -3.877,18.019 4.092,22.006 7.499,41.346 C 112.783,40 22.475,43.436 0,0"
           style="fill:#9e9a00;fill-opacity:1;fill-rule:evenodd;stroke:none"
           id="path4556" />
      </g>
      <g
         id="g4950"
         transform="translate(151.1955,541.2059)" />
      <g
         id="g4954"
         transform="translate(195.8743,526.2936)" />
      <g
         id="g4962"
         transform="translate(219.7857,541.2059)" />
      <g
         id="g4966"
         transform="translate(249.6966,528.5724)" />
      <g
         id="g4970"
         transform="translate(265.2146,541.9559)" />
      <g
         id="g4974"
         transform="translate(277.329,526.2936)" />
      <g
         id="g4978"
         transform="translate(289.2991,528.5724)" />
      <g
         id="g4982"
         transform="translate(423.9567,261.8065)" />
      <g
         id="g4990"
         transform="translate(59.1627,177.071)" />
      <g
         id="g4994"
         transform="translate(74.2507,184.5717)" />
      <g
         id="g4998"
         transform="translate(81.7946,165.1113)" />
      <g
         id="g5002"
         transform="translate(109.171,179.9606)" />
      <g
         id="g5006"
         transform="translate(119.0803,165.9362)" />
      <g
         id="g5010"
         transform="translate(146.8667,169.5699)" />
      <g
         id="g5014"
         transform="translate(158.3016,179.9606)" />
      <g
         id="g5018"
         transform="translate(172.4692,166.5941)" />
      <g
         id="g5022"
         transform="translate(187.1419,169.7797)" />
      <g
         id="g5034"
         transform="matrix(0.36626205,0,0,0.36626205,287.49239,363.41859)">
        <path
           d="m 0,0 v -1.951 c 0,-2.374 0.449,-4.185 1.341,-5.426 0.899,-1.248 2.202,-1.868 3.912,-1.868 1.715,0 3.019,0.696 3.898,2.095 0.886,1.4 1.329,3.458 1.329,6.181 0,2.729 -0.443,4.787 -1.329,6.174 C 8.272,6.592 6.968,7.282 5.253,7.282 3.543,7.282 2.24,6.656 1.341,5.408 0.449,4.16 0,2.356 0,0 Z M -3.369,6.902 H -6.588 V 8.878 H 0 V 5.807 c 0.661,1.235 1.497,2.14 2.514,2.723 1.017,0.589 2.277,0.88 3.774,0.88 2.389,0 4.342,-0.956 5.852,-2.875 1.515,-1.913 2.27,-4.42 2.27,-7.504 0,-3.09 -0.755,-5.598 -2.27,-7.523 -1.51,-1.919 -3.463,-2.881 -5.852,-2.881 -1.497,0 -2.757,0.291 -3.774,0.88 C 1.497,-9.904 0.661,-8.999 0,-7.764 v -9.005 h 3.181 v -1.975 h -9.769 v 1.975 h 3.219 z"
           style="fill:#9e9a00;fill-opacity:1;fill-rule:nonzero;stroke:none"
           id="path5036" />
      </g>
      <g
         id="g5038"
         transform="matrix(0.36626205,0,0,0.36626205,300.62343,366.68422)">
        <path
           d="m 0,0 v -4.939 h -1.946 c -0.063,0.981 -0.331,1.716 -0.805,2.197 -0.474,0.488 -1.166,0.728 -2.078,0.728 -1.653,0 -2.925,-0.582 -3.805,-1.748 -0.879,-1.165 -1.322,-2.836 -1.322,-5.015 v -9.005 h 3.892 v -1.975 h -10.293 v 1.975 h 3.032 v 15.806 h -3.219 v 1.938 h 6.588 V -3.54 c 0.655,1.368 1.503,2.381 2.539,3.046 1.035,0.659 2.295,0.988 3.78,0.988 0.549,0 1.123,-0.044 1.728,-0.127 C -1.304,0.279 -0.668,0.158 0,0"
           style="fill:#9e9a00;fill-opacity:1;fill-rule:nonzero;stroke:none"
           id="path5040" />
      </g>
      <g
         id="g5042"
         transform="matrix(0.36626205,0,0,0.36626205,305.36216,359.92093)">
        <path
           d="m 0,0 c 1.803,0 3.163,0.722 4.086,2.172 0.917,1.45 1.379,3.584 1.379,6.409 0,2.818 -0.462,4.952 -1.379,6.389 -0.923,1.444 -2.283,2.166 -4.086,2.166 -1.803,0 -3.163,-0.722 -4.086,-2.166 -0.917,-1.437 -1.379,-3.571 -1.379,-6.389 0,-2.825 0.462,-4.959 1.392,-6.409 C -3.15,0.722 -1.79,0 0,0 Z m 0,-1.824 c -2.826,0 -5.097,0.95 -6.818,2.844 -1.716,1.899 -2.577,4.42 -2.577,7.561 0,3.134 0.855,5.648 2.57,7.542 1.71,1.893 3.987,2.837 6.825,2.837 2.838,0 5.115,-0.944 6.825,-2.837 C 8.54,14.229 9.395,11.715 9.395,8.581 9.395,5.44 8.54,2.919 6.825,1.02 5.115,-0.874 2.838,-1.824 0,-1.824"
           style="fill:#9e9a00;fill-opacity:1;fill-rule:nonzero;stroke:none"
           id="path5044" />
      </g>
      <g
         id="g5046"
         transform="matrix(0.36626205,0,0,0.36626205,311.47193,368.91545)">
        <path
           d="M 0,0 C 0,0.57 0.206,1.064 0.611,1.482 1.023,1.906 1.516,2.115 2.09,2.115 2.645,2.115 3.131,1.906 3.543,1.482 3.949,1.064 4.154,0.57 4.154,0 4.154,-0.583 3.955,-1.083 3.562,-1.488 3.163,-1.9 2.67,-2.102 2.09,-2.102 1.516,-2.102 1.023,-1.9 0.611,-1.488 0.206,-1.083 0,-0.583 0,0 Z m 0.823,-8.106 h -3.181 v 1.976 h 6.55 v -21.651 c 0,-2.026 -0.593,-3.616 -1.784,-4.768 -1.185,-1.159 -2.82,-1.735 -4.903,-1.735 -0.874,0 -1.716,0.101 -2.514,0.304 -0.793,0.202 -1.573,0.506 -2.327,0.912 v 4.065 h 1.721 c 0.088,-1.19 0.387,-2.064 0.905,-2.622 0.518,-0.557 1.279,-0.836 2.277,-0.836 1.11,0 1.928,0.381 2.458,1.141 0.53,0.766 0.798,1.944 0.798,3.539 z"
           style="fill:#9e9a00;fill-opacity:1;fill-rule:nonzero;stroke:none"
           id="path5048" />
      </g>
      <g
         id="g5050"
         transform="matrix(0.36626205,0,0,0.36626205,322.3935,362.92688)">
        <path
           d="m 0,0 h -14.485 v -0.152 c 0,-2.66 0.493,-4.667 1.478,-6.022 0.986,-1.355 2.446,-2.033 4.367,-2.033 1.472,0 2.682,0.393 3.624,1.178 0.949,0.785 1.61,1.95 1.984,3.495 h 2.695 c -0.536,-2.159 -1.522,-3.78 -2.969,-4.869 -1.441,-1.083 -3.338,-1.628 -5.683,-1.628 -2.839,0 -5.122,0.95 -6.844,2.843 -1.722,1.9 -2.582,4.42 -2.582,7.562 0,3.109 0.848,5.623 2.538,7.522 1.691,1.906 3.918,2.856 6.669,2.856 2.938,0 5.191,-0.918 6.762,-2.754 C -0.88,6.161 -0.063,3.495 0,0 Z m -3.968,1.975 c -0.075,2.299 -0.548,4.034 -1.434,5.199 -0.88,1.172 -2.153,1.755 -3.806,1.755 -1.547,0 -2.763,-0.589 -3.649,-1.761 -0.892,-1.178 -1.435,-2.906 -1.628,-5.193 z"
           style="fill:#9e9a00;fill-opacity:1;fill-rule:nonzero;stroke:none"
           id="path5052" />
      </g>
      <g
         id="g5054"
         transform="matrix(0.36626205,0,0,0.36626205,325.16951,365.94668)">
        <path
           d="M 0,0 H -2.957 V 1.976 H 0 V 8.093 H 3.369 V 1.976 H 9.7 V 0 H 3.369 v -12.532 c 0,-1.672 0.156,-2.742 0.474,-3.217 0.318,-0.469 0.905,-0.703 1.759,-0.703 0.874,0 1.516,0.266 1.915,0.792 0.406,0.525 0.618,1.374 0.643,2.552 h 2.545 c -0.1,-1.792 -0.58,-3.097 -1.441,-3.927 -0.867,-0.829 -2.183,-1.241 -3.949,-1.241 -1.934,0 -3.306,0.437 -4.111,1.305 C 0.399,-16.097 0,-14.622 0,-12.532 Z"
           style="fill:#9e9a00;fill-opacity:1;fill-rule:nonzero;stroke:none"
           id="path5056" />
      </g>
      <g
         id="g5058"
         transform="matrix(0.36626205,0,0,0.36626205,333.93646,359.92093)">
        <path
           d="m 0,0 c 1.803,0 3.163,0.722 4.086,2.172 0.917,1.45 1.379,3.584 1.379,6.409 0,2.818 -0.462,4.952 -1.379,6.389 -0.923,1.444 -2.283,2.166 -4.086,2.166 -1.803,0 -3.163,-0.722 -4.086,-2.166 -0.917,-1.437 -1.379,-3.571 -1.379,-6.389 0,-2.825 0.462,-4.959 1.392,-6.409 C -3.15,0.722 -1.79,0 0,0 Z m 0,-1.824 c -2.826,0 -5.097,0.95 -6.818,2.844 -1.716,1.899 -2.577,4.42 -2.577,7.561 0,3.134 0.855,5.648 2.57,7.542 1.71,1.893 3.987,2.837 6.825,2.837 2.839,0 5.115,-0.944 6.825,-2.837 C 8.54,14.229 9.395,11.715 9.395,8.581 9.395,5.44 8.54,2.919 6.825,1.02 5.115,-0.874 2.839,-1.824 0,-1.824"
           style="fill:#9e9a00;fill-opacity:1;fill-rule:nonzero;stroke:none"
           id="path5060" />
      </g>
      <g
         id="g5062"
         transform="matrix(0.36626205,0,0,0.36626205,354.8201,362.92688)">
        <path
           d="m 0,0 h -14.485 v -0.152 c 0,-2.66 0.493,-4.667 1.478,-6.022 0.986,-1.355 2.446,-2.033 4.367,-2.033 1.472,0 2.682,0.393 3.624,1.178 0.949,0.785 1.61,1.95 1.984,3.495 h 2.695 c -0.536,-2.159 -1.522,-3.78 -2.969,-4.869 -1.441,-1.083 -3.338,-1.628 -5.684,-1.628 -2.838,0 -5.121,0.95 -6.843,2.843 -1.722,1.9 -2.582,4.42 -2.582,7.562 0,3.109 0.848,5.623 2.539,7.522 1.69,1.906 3.917,2.856 6.668,2.856 2.938,0 5.19,-0.918 6.762,-2.754 C -0.88,6.161 -0.063,3.495 0,0 Z m -3.968,1.975 c -0.075,2.299 -0.548,4.034 -1.434,5.199 -0.88,1.172 -2.153,1.755 -3.806,1.755 -1.547,0 -2.763,-0.589 -3.649,-1.761 -0.892,-1.178 -1.435,-2.906 -1.628,-5.193 z"
           style="fill:#9e9a00;fill-opacity:1;fill-rule:nonzero;stroke:none"
           id="path5064" />
      </g>
      <g
         id="g5066"
         transform="matrix(0.36626205,0,0,0.36626205,363.31288,360.17146)">
        <path
           d="m 0,0 h 3.219 v -1.976 h -6.588 v 3.091 c -0.655,-1.242 -1.497,-2.154 -2.514,-2.742 -1.017,-0.589 -2.271,-0.881 -3.768,-0.881 -2.389,0 -4.335,0.963 -5.851,2.882 -1.516,1.925 -2.277,4.432 -2.277,7.523 0,3.083 0.755,5.591 2.264,7.504 1.51,1.918 3.463,2.874 5.864,2.874 1.497,0 2.751,-0.291 3.768,-0.88 1.017,-0.582 1.859,-1.494 2.514,-2.729 V 24.925 H -6.55 V 26.9 H 0 Z m -3.369,6.915 v 1.944 c 0,2.362 -0.449,4.167 -1.341,5.414 -0.898,1.248 -2.196,1.875 -3.899,1.875 -1.728,0 -3.032,-0.69 -3.918,-2.077 -0.879,-1.387 -1.322,-3.445 -1.322,-6.174 0,-2.724 0.443,-4.782 1.322,-6.181 0.886,-1.399 2.19,-2.096 3.918,-2.096 1.703,0 3.001,0.621 3.899,1.868 0.892,1.241 1.341,3.052 1.341,5.427"
           style="fill:#9e9a00;fill-opacity:1;fill-rule:nonzero;stroke:none"
           id="path5068" />
      </g>
      <g
         id="g5070"
         transform="matrix(0.36626205,0,0,0.36626205,370.35701,366.6703)">
        <path
           d="M 0,0 H 6.288 V -17.744 H 9.47 v -1.975 H 2.919 v 3.495 c -0.623,-1.311 -1.422,-2.311 -2.407,-2.995 -0.992,-0.69 -2.134,-1.032 -3.438,-1.032 -2.152,0 -3.743,0.62 -4.76,1.868 -1.016,1.241 -1.522,3.191 -1.522,5.851 v 10.556 h -3.031 V 0 h 6.4 v -11.475 c 0,-2.399 0.287,-4.04 0.867,-4.933 0.58,-0.892 1.616,-1.336 3.101,-1.336 1.559,0 2.751,0.583 3.568,1.742 0.817,1.165 1.222,2.856 1.222,5.066 v 8.96 H 0 Z"
           style="fill:#9e9a00;fill-opacity:1;fill-rule:nonzero;stroke:none"
           id="path5072" />
      </g>
      <g
         id="g5074"
         transform="matrix(0.36626205,0,0,0.36626205,381.99144,361.61874)">
        <path
           d="m 0,0 c -0.474,-2.102 -1.385,-3.705 -2.739,-4.806 -1.353,-1.102 -3.1,-1.653 -5.24,-1.653 -2.826,0 -5.096,0.95 -6.812,2.843 -1.715,1.9 -2.576,4.42 -2.576,7.561 0,3.147 0.861,5.668 2.576,7.555 1.716,1.881 3.986,2.824 6.812,2.824 1.229,0 2.452,-0.146 3.668,-0.431 1.223,-0.291 2.446,-0.728 3.675,-1.317 V 7.523 h -1.947 c -0.255,1.735 -0.811,2.995 -1.672,3.787 -0.86,0.791 -2.083,1.19 -3.68,1.19 -1.815,0 -3.188,-0.715 -4.111,-2.146 -0.929,-1.425 -1.391,-3.566 -1.391,-6.409 0,-2.849 0.462,-4.99 1.378,-6.427 0.924,-1.438 2.296,-2.153 4.124,-2.153 1.447,0 2.601,0.386 3.468,1.152 0.868,0.773 1.454,1.932 1.772,3.483 z"
           style="fill:#9e9a00;fill-opacity:1;fill-rule:nonzero;stroke:none"
           id="path5076" />
      </g>
      <g
         id="g5078"
         transform="matrix(0.36626205,0,0,0.36626205,388.69059,361.71851)">
        <path
           d="m 0,0 v 4.173 h -4.329 c -1.672,0 -2.914,-0.367 -3.731,-1.096 -0.817,-0.728 -1.222,-1.849 -1.222,-3.356 0,-1.374 0.411,-2.463 1.241,-3.267 0.829,-0.805 1.952,-1.21 3.362,-1.21 1.404,0 2.533,0.437 3.394,1.317 C -0.43,-2.559 0,-1.412 0,0 Z M 3.369,6.111 V -4.224 H 6.363 V -6.2 H 0 v 2.141 c -0.742,-0.912 -1.603,-1.59 -2.576,-2.02 -0.973,-0.437 -2.115,-0.653 -3.419,-0.653 -2.152,0 -3.862,0.583 -5.128,1.742 -1.266,1.165 -1.902,2.729 -1.902,4.711 0,2.033 0.723,3.616 2.17,4.743 1.454,1.121 3.5,1.685 6.139,1.685 H 0 v 1.355 c 0,1.501 -0.449,2.66 -1.347,3.489 -0.893,0.823 -2.153,1.235 -3.775,1.235 -1.341,0 -2.408,-0.31 -3.2,-0.931 -0.792,-0.621 -1.291,-1.539 -1.485,-2.754 h -1.722 v 3.989 c 1.174,0.507 2.309,0.886 3.407,1.14 1.104,0.253 2.183,0.38 3.231,0.38 2.689,0 4.741,-0.678 6.151,-2.033 1.404,-1.355 2.109,-3.325 2.109,-5.908"
           style="fill:#9e9a00;fill-opacity:1;fill-rule:nonzero;stroke:none"
           id="path5080" />
      </g>
      <g
         id="g5082"
         transform="matrix(0.36626205,0,0,0.36626205,393.50016,365.94668)">
        <path
           d="M 0,0 H -2.957 V 1.976 H 0 V 8.093 H 3.369 V 1.976 H 9.7 V 0 H 3.369 v -12.532 c 0,-1.672 0.156,-2.742 0.474,-3.217 0.318,-0.469 0.904,-0.703 1.759,-0.703 0.873,0 1.516,0.266 1.915,0.792 0.406,0.525 0.618,1.374 0.643,2.552 h 2.545 c -0.1,-1.792 -0.58,-3.097 -1.441,-3.927 -0.867,-0.829 -2.183,-1.241 -3.949,-1.241 -1.934,0 -3.306,0.437 -4.111,1.305 C 0.399,-16.097 0,-14.622 0,-12.532 Z"
           style="fill:#9e9a00;fill-opacity:1;fill-rule:nonzero;stroke:none"
           id="path5084" />
      </g>
      <g
         id="g5086"
         transform="matrix(0.36626205,0,0,0.36626205,399.47056,368.91545)">
        <path
           d="M 0,0 C 0,0.57 0.206,1.064 0.611,1.482 1.023,1.906 1.516,2.115 2.089,2.115 2.645,2.115 3.131,1.906 3.543,1.482 3.949,1.064 4.154,0.57 4.154,0 4.154,-0.583 3.955,-1.083 3.55,-1.488 3.15,-1.9 2.657,-2.102 2.089,-2.102 1.516,-2.102 1.023,-1.9 0.611,-1.488 0.206,-1.083 0,-0.583 0,0 Z m 4.304,-23.874 h 3.182 v -1.975 h -9.77 v 1.975 h 3.22 v 15.768 h -3.22 v 1.976 h 6.588 z"
           style="fill:#9e9a00;fill-opacity:1;fill-rule:nonzero;stroke:none"
           id="path5088" />
      </g>
      <g
         id="g5090"
         transform="matrix(0.36626205,0,0,0.36626205,406.52385,359.4478)">
        <path
           d="m 0,0 -7.143,17.744 h -2.214 v 1.975 h 8.939 V 17.744 H -3.525 L 1.94,4.173 7.405,17.744 H 4.498 v 1.975 H 11.79 V 17.744 H 9.613 L 2.47,0 Z"
           style="fill:#9e9a00;fill-opacity:1;fill-rule:nonzero;stroke:none"
           id="path5092" />
      </g>
      <g
         id="g5094"
         transform="matrix(0.36626205,0,0,0.36626205,415.62198,359.92093)">
        <path
           d="m 0,0 c 1.803,0 3.163,0.722 4.087,2.172 0.916,1.45 1.378,3.584 1.378,6.409 0,2.818 -0.462,4.952 -1.378,6.389 -0.924,1.444 -2.284,2.166 -4.087,2.166 -1.803,0 -3.163,-0.722 -4.086,-2.166 -0.917,-1.437 -1.379,-3.571 -1.379,-6.389 0,-2.825 0.462,-4.959 1.392,-6.409 C -3.15,0.722 -1.79,0 0,0 Z m 0,-1.824 c -2.826,0 -5.096,0.95 -6.818,2.844 -1.716,1.899 -2.577,4.42 -2.577,7.561 0,3.134 0.855,5.648 2.571,7.542 1.709,1.893 3.986,2.837 6.824,2.837 2.839,0 5.116,-0.944 6.825,-2.837 C 8.54,14.229 9.395,11.715 9.395,8.581 9.395,5.44 8.54,2.919 6.825,1.02 5.116,-0.874 2.839,-1.824 0,-1.824"
           style="fill:#9e9a00;fill-opacity:1;fill-rule:nonzero;stroke:none"
           id="path5096" />
      </g>
    </g>
  </g>
</svg>
